# xmcd
#
# Track frame offsets:
#	150
#	13782
#	27860
#	41395
#	59812
#	75807
#	92570
#	105772
#	122492
#	138152
#	154517
#	166647
#	180445
#	198222
#	213447
#	226795
#	240420
#	253892
#	267742
#	271807
#	274772
#	277482
#	284477
#	285812
#	286877
#
# Disc length: 3837
#
# Revision: 1
# Processed by: cddbd v1.5.1PL0 Copyright (c) Steve Scherf et al.
# Submitted via: VisiTrax 2.9.5.180 - For more info visit www.synapsa.com
# Normalized: r0:DSETVAR1
#
DISCID=510efb19
DTITLE=Various Artist - CDX 139 July 1996
DYEAR=1996
DGENRE=
TTITLE0=Tony Toliver - Bettin' forever on you
TTITLE1=Kendalls - Cryin' time
TTITLE2=Don Cox - Gentlemen! Start your engines
TTITLE3=Shania Twain - Home ain't where his heart is (anymore)
TTITLE4=Brooks and Dunn - I am that man
TTITLE5=Paul Brandt - I do
TTITLE6=Beach Boys/James House - Little deuce coupe
TTITLE7=Kenny Chesney - Me and you
TTITLE8=Travis Tritt - More than ou'll ever know
TTITLE9=Stephanie Bentley - Once I was the light of your life
TTITLE10=Cox Family - Runaway
TTITLE11=Alabama - The maker said take her
TTITLE12=David Lee Murphy - The road you leave behind
TTITLE13=Sammy Kershaw - Vidalia
TTITLE14=Jo Dee Messina - You're not in Kansas anymore
TTITLE15=Hank Willams Jr. - Been there, done that
TTITLE16=Hank Willams Jr. - Don Juan d'bubba
TTITLE17=Hank Willams Jr. - Honky tonked all to hell
TTITLE18=Neal McCoy - Interview
TTITLE19=Neal McCoy - Interview
TTITLE20=Neal McCoy - Interview
TTITLE21=Neal McCoy - Interview
TTITLE22=Neal McCoy - Interview
TTITLE23=Neal McCoy - Interview
TTITLE24=Neal McCoy - Interview
EXTD=
EXTT0=
EXTT1=
EXTT2=
EXTT3=
EXTT4=
EXTT5=
EXTT6=
EXTT7=
EXTT8=
EXTT9=
EXTT10=
EXTT11=
EXTT12=
EXTT13=
EXTT14=
EXTT15=
EXTT16=
EXTT17=
EXTT18=
EXTT19=
EXTT20=
EXTT21=
EXTT22=
EXTT23=
EXTT24=
PLAYORDER=
